<svg width="64" height="64" viewBox="-32 -32 64 64" xmlns="http://www.w3.org/2000/svg">
<path d="M 25.827,2.993 A 26.000 26.000 0 0 1 -24.172,9.576 A 3.000 3.000 0 0 1 -22.216,5.953 L -16.421,4.400 A 3.000 3.000 0 0 1 -12.443,6.416 A 14.000 14.000 0 0 0 13.680,2.977 A 3.000 3.000 0 0 1 17.000,0.000 L 23.000,0.000 A 3.000 3.000 0 0 1 25.827,2.993 Z" fill="#24b33e" transform="rotate(-90 0 0)"/>
<path d="M 25.827,2.993 A 26.000 26.000 0 0 1 -1.084,25.977 A 3.000 3.000 0 0 1 -3.598,22.717 L -2.659,16.791 A 3.000 3.000 0 0 1 0.800,13.977 A 14.000 14.000 0 0 0 13.680,2.977 A 3.000 3.000 0 0 1 17.000,0.000 L 23.000,0.000 A 3.000 3.000 0 0 1 25.827,2.993 Z" fill="#e61568" transform="rotate(85 0 0)"/>
<path d="M 25.827,2.993 A 26.000 26.000 0 0 1 13.239,22.377 A 3.000 3.000 0 0 1 9.355,21.012 L 6.915,15.530 A 3.000 3.000 0 0 1 8.284,11.286 A 14.000 14.000 0 0 0 13.680,2.977 A 3.000 3.000 0 0 1 17.000,0.000 L 23.000,0.000 A 3.000 3.000 0 0 1 25.827,2.993 Z" fill="#F1C40F" transform="rotate(194 0 0)"/>
</svg>